<?xml version="1.0" encoding="UTF-8"?>
<svg width="24px" height="24px" viewBox="0 0 24 24" version="1.1" xmlns="http://www.w3.org/2000/svg">
    <g stroke="none" stroke-width="1" fill="none" fill-rule="evenodd">
        <path d="M12.87,15.07 L10.33,12.56 L10.36,12.53 C12.1,10.59 13.34,8.36 14.07,6 L17.5,6 L17.5,4 L10,4 L10,2 L8,2 L8,4 L0.5,4 L0.5,6 L6.68,6 C5.86,7.8 5.24,9.58 4.87,11.32 L4.87,11.32 C4.53,10.74 4.24,10.12 4,9.47 L2,9.47 C2.37,11.17 2.99,12.79 3.78,14.32 C3.18,14.8 2.65,15.22 2.2,15.58 L3.61,17.01 C4.51,16.44 5.44,15.85 6.41,15.25 C7.38,15.85 8.31,16.44 9.21,17.01 L10.62,15.58 C10.17,15.22 9.64,14.8 9.04,14.32 C9.85,12.79 10.47,11.17 10.84,9.47 L8.84,9.47 C8.6,10.12 8.31,10.74 7.97,11.32 C7.6,9.58 6.98,7.8 6.16,6 L10,6 L10,6.07 C9.29,8.36 10.55,10.59 12.29,12.53 L12.26,12.56 L9.72,15.07 L11.14,16.5 L14.5,13.14 L14.5,10.5 L16.5,10.5 L16.5,13.14 L19.86,16.5 L21.28,15.07 Z" fill="#764BA2"/>
    </g>
</svg> 