<?xml version="1.0" encoding="UTF-8"?>
<svg width="24px" height="24px" viewBox="0 0 24 24" version="1.1" xmlns="http://www.w3.org/2000/svg">
    <g stroke="none" stroke-width="1" fill="none" fill-rule="evenodd">
        <path d="M12,14 C13.66,14 15,12.66 15,11 L15,5 C15,3.34 13.66,2 12,2 C10.34,2 9,3.34 9,5 L9,11 C9,12.66 10.34,14 12,14 Z" fill="#667EEA"/>
        <path d="M17,11 C17,14.53 14.39,17.44 11,17.93 L11,21 L13,21 L13,19.93 C16.39,19.44 19,16.53 19,13 L17,13 C17,15.76 14.76,18 12,18 C9.24,18 7,15.76 7,13 L5,13 C5,16.53 7.61,19.44 11,19.93 L11,21 L13,21 L13,19.93 C16.39,19.44 19,16.53 19,13 L17,13 Z" fill="#764BA2"/>
    </g>
</svg> 